# xmcd
#
# Track frame offsets: 
#        150
#        18764
#        21058
#        36581
#        50833
#        66878
#        78722
#        93400
#        107856
#        115023
#        131100
#        144414
#        167978
#        173543
#        188036
#        203774
#        211971
#        226903
#        241801
#
# Disc length: 3366 seconds
#
# Revision: 1
# Processed by: cddbd v1.5.2PL0 Copyright (c) Steve Scherf et al.
# Submitted via: ExactAudioCopy v0.99pb5
#
DISCID=060d2413
DTITLE=(The Life and Hard Times of) Guy Terrifico - Bring It Back Home
DYEAR=2006
DGENRE=soundtrack
TTITLE0=Saturday Night
TTITLE1=Just a Show (Rehearsal)
TTITLE2=Just a Show
TTITLE3=Worth a Song
TTITLE4=Friend of the Devil
TTITLE5=Rambler
TTITLE6=Walking Back to Houston
TTITLE7=Let's Make Love Again
TTITLE8=Si Senor
TTITLE9=Whiskey, You Can Save Me
TTITLE10=Midnight Rider
TTITLE11=I'm Only Make Believe
TTITLE12=Alberta Son
TTITLE13=New Mr. Me
TTITLE14=Perogie Moon
TTITLE15=The Gospel Song
TTITLE16=Going to the Country
TTITLE17=The Pilgrim: Chapter 33
TTITLE18=(My Life Would Make) a Damn Good Country Song
EXTD=
EXTT0=
EXTT1=
EXTT2=
EXTT3=
EXTT4=
EXTT5=
EXTT6=
EXTT7=
EXTT8=
EXTT9=
EXTT10=
EXTT11=
EXTT12=
EXTT13=
EXTT14=
EXTT15=
EXTT16=
EXTT17=
EXTT18=
PLAYORDER=
